<svg xmlns="http://www.w3.org/2000/svg" xmlns:xlink="http://www.w3.org/1999/xlink" width="100" zoomAndPan="magnify" viewBox="0 0 75 74.999997" height="100" preserveAspectRatio="xMidYMid meet" version="1.0"><defs><g/></defs><rect x="-7.5" width="90" fill="#ffffff" y="-7.5" height="89.999996" fill-opacity="1"/><rect x="-7.5" width="90" fill="#ffffff" y="-7.5" height="89.999996" fill-opacity="1"/><g fill="#000000" fill-opacity="1"><g transform="translate(13.730451, 64.313392)"><g><path d="M 25.140625 3.53125 C 24.285156 2.15625 23.472656 0.757812 22.703125 -0.65625 C 21.929688 -2.082031 21.300781 -3.34375 20.8125 -4.4375 C 20.332031 -4.363281 19.804688 -4.296875 19.234375 -4.234375 C 18.671875 -4.171875 18.082031 -4.140625 17.46875 -4.140625 C 15.769531 -4.140625 14.054688 -4.351562 12.328125 -4.78125 C 10.597656 -5.207031 9.015625 -5.894531 7.578125 -6.84375 C 6.140625 -7.800781 4.984375 -9.082031 4.109375 -10.6875 C 3.234375 -12.289062 2.796875 -14.25 2.796875 -16.5625 C 2.796875 -18.34375 3.097656 -19.875 3.703125 -21.15625 C 4.316406 -22.4375 5.148438 -23.519531 6.203125 -24.40625 C 7.546875 -25.582031 9.191406 -26.4375 11.140625 -26.96875 C 13.085938 -27.5 15.257812 -27.765625 17.65625 -27.765625 L 17.953125 -27.765625 L 17.953125 -33.546875 L 0 -33.546875 L 0 -37.859375 L 32.5 -37.859375 L 32.5 -33.546875 L 22.890625 -33.546875 L 22.890625 -23.4375 L 19.90625 -23.4375 C 17.507812 -23.4375 15.597656 -23.289062 14.171875 -23 C 12.753906 -22.71875 11.539062 -22.253906 10.53125 -21.609375 C 9.59375 -21.003906 8.878906 -20.234375 8.390625 -19.296875 C 7.910156 -18.359375 7.671875 -17.242188 7.671875 -15.953125 C 7.671875 -13.796875 8.472656 -12.015625 10.078125 -10.609375 C 11.679688 -9.210938 14.144531 -8.515625 17.46875 -8.515625 C 17.71875 -8.515625 17.960938 -8.515625 18.203125 -8.515625 C 18.441406 -8.515625 18.707031 -8.535156 19 -8.578125 C 18.75 -9.390625 18.625 -10.101562 18.625 -10.71875 C 18.625 -12.09375 19.050781 -13.082031 19.90625 -13.6875 C 20.757812 -14.300781 21.691406 -14.609375 22.703125 -14.609375 C 24.453125 -14.609375 25.78125 -14.109375 26.6875 -13.109375 C 27.601562 -12.117188 28.0625 -11.035156 28.0625 -9.859375 C 28.0625 -8.554688 27.765625 -7.550781 27.171875 -6.84375 C 26.585938 -6.132812 25.847656 -5.597656 24.953125 -5.234375 C 25.441406 -4.265625 26.019531 -3.257812 26.6875 -2.21875 C 27.363281 -1.1875 28.207031 0.0390625 29.21875 1.46875 Z M 25.140625 3.53125 "/></g></g></g><g fill="#000000" fill-opacity="1"><g transform="translate(45.373619, 64.313392)"><g><path d="M 10.34375 -33.546875 L 10.34375 0 L 5.421875 0 L 5.421875 -33.546875 L 0 -33.546875 L 0 -37.859375 L 16.625 -37.859375 L 16.625 -33.546875 Z M 5.484375 -37.4375 C 4.628906 -40.644531 3.785156 -43.171875 2.953125 -45.015625 C 2.117188 -46.859375 1.191406 -48.164062 0.171875 -48.9375 C -0.835938 -49.707031 -2.03125 -50.09375 -3.40625 -50.09375 C -4.34375 -50.09375 -5.144531 -50 -5.8125 -49.8125 C -6.476562 -49.632812 -7.097656 -49.445312 -7.671875 -49.25 L -9.125 -53.6875 C -7.550781 -54.257812 -5.707031 -54.546875 -3.59375 -54.546875 C -1.40625 -54.546875 0.488281 -54.023438 2.09375 -52.984375 C 3.695312 -51.953125 5.140625 -50.1875 6.421875 -47.6875 C 7.703125 -45.195312 8.910156 -41.78125 10.046875 -37.4375 Z M 5.484375 -37.4375 "/></g></g></g></svg>